<svg xmlns="http://www.w3.org/2000/svg" viewBox="0 0 160 160" width="160" height="160">
  <defs>
    <linearGradient id="cl-blue" x1="0%" y1="0%" x2="100%" y2="100%">
      <stop offset="0%" stop-color="#1e3a5f"/>
      <stop offset="100%" stop-color="#2563eb"/>
    </linearGradient>
  </defs>
  <!-- Outer concentric circles (badge seal) -->
  <circle cx="80" cy="80" r="76" fill="none" stroke="#1e40af" stroke-width="4"/>
  <circle cx="80" cy="80" r="72" fill="none" stroke="#1e40af" stroke-width="1.5"/>
  <circle cx="80" cy="80" r="68" fill="url(#cl-blue)"/>
  <circle cx="80" cy="80" r="65" fill="none" stroke="#3b82f6" stroke-width="1"/>
  <!-- Three stars above (center larger) -->
  <path d="M80 32 L82 38 L88 38 L83 42 L85 48 L80 44 L75 48 L77 42 L72 38 L78 38 Z" fill="#fff"/>
  <path d="M58 42 L59.5 46 L64 46 L60.5 48.5 L62 53 L58 50 L54 53 L55.5 48.5 L52 46 L56.5 46 Z" fill="#fff"/>
  <path d="M102 42 L103.5 46 L108 46 L104.5 48.5 L106 53 L102 50 L98 53 L99.5 48.5 L96 46 L100.5 46 Z" fill="#fff"/>
  <!-- Central blue banner with rounded ends and grommet dots -->
  <path d="M28 68 Q24 68 24 80 Q24 92 28 92 L132 92 Q136 92 136 80 Q136 68 132 68 Z" fill="#1e40af" stroke="#fff" stroke-width="1"/>
  <circle cx="28" cy="80" r="3" fill="#fff"/>
  <circle cx="132" cy="80" r="3" fill="#fff"/>
  <text x="80" y="76" font-family="Arial, system-ui, sans-serif" font-size="11" font-weight="700" fill="#fff" text-anchor="middle">CONTEMPORARY</text>
  <text x="80" y="88" font-family="Arial, system-ui, sans-serif" font-size="11" font-weight="700" fill="#fff" text-anchor="middle">LEATHER</text>
  <!-- SINCE 2007 below -->
  <text x="80" y="108" font-family="Arial, system-ui, sans-serif" font-size="9" font-weight="600" fill="#fff" text-anchor="middle" letter-spacing="0.08em">SINCE 2007</text>
</svg>
