<?xml version="1.0" encoding="UTF-8" standalone="no"?>
<svg xmlns="http://www.w3.org/2000/svg" version="1.0" width="300" height="75" viewBox="0 0 225 56.25">
<g transform="matrix(0.02618106,0,0,-0.02618106,-5.3932984,60.713463)" fill="#d12232">
	<path d="m 1533,2268.5608 c -3,-4 -2,-11 3,-15 18,-12 44,-60 55,-103 8,-28 14,-191 18,-483 4,-312 9,-446 18,-460 6,-11 22,-42 35,-70 33,-72 131,-166 214,-205 98,-46 100,-47 188,-65 134,-29 276,-9 410,55 101,49 183,124 219,201 45,95 47,114 47,564 v 430 l 24,50 c 13,28 36,62 51,78 15,15 23,27 16,27 -95,3 -334,0 -338,-3 -2,-3 8,-17 22,-33 14,-15 28,-39 32,-53 3,-14 11,-32 17,-40 8,-10 11,-144 11,-445 0,-402 -1,-434 -19,-471 -34,-72 -77,-122 -129,-151 -48,-27 -60,-29 -157,-29 -177,0 -251,48 -284,183 -22,93 -24,821 -2,905 17,64 42,117 56,117 6,0 10,4 10,10 0,12 -510,18 -517,6 z"/>
	<path d="m 3357,2274.5608 -267,-2 35,-35 c 19,-20 45,-54 57,-78 l 23,-42 3,-585 c 1,-333 -2,-624 -7,-675 -13,-114 -31,-217 -41,-230 -4,-5 -11,-26 -15,-45 -4,-19 -11,-41 -15,-50 -5,-8 -25,-49 -45,-90 -20,-41 -57,-105 -81,-142 -25,-37 -43,-72 -39,-78 8,-12 46,-13 78,-1 39,15 210,190 285,292 82,111 172,280 172,321 0,8 4,18 9,23 28,30 34,145 40,707 5,442 9,580 19,590 6,6 12,20 12,30 0,10 16,34 35,52 20,20 30,35 22,37 -6,2 -132,3 -280,1 z"/>
	<path d="m 4650,2267.5608 c -4,-5 -11,-35 -14,-65 -4,-30 -10,-74 -13,-97 -6,-48 1,-52 32,-23 12,11 47,29 79,40 49,18 78,20 209,18 l 152,-3 3,-543 c 2,-517 1,-545 -17,-585 -11,-23 -31,-53 -45,-66 -14,-14 -26,-28 -26,-33 0,-11 517,-10 525,1 3,6 -3,15 -14,20 -11,6 -32,37 -48,68 l -28,58 -3,520 c -2,286 0,530 3,543 5,22 8,22 160,22 129,0 165,-3 212,-20 31,-11 63,-26 73,-35 32,-29 40,-19 34,48 -4,34 -9,78 -13,97 l -7,35 -623,5 c -409,3 -625,2 -631,-5 z"/>
	<path d="m 6120,2274.5608 c -5,-2 3,-20 20,-40 60,-76 60,-77 60,-645 0,-571 -1,-586 -61,-643 -16,-15 -29,-31 -29,-36 0,-4 255,-7 568,-6 l 567,3 6,50 c 4,28 10,71 14,98 6,39 5,47 -8,47 -9,0 -18,-4 -22,-9 -8,-13 -62,-40 -110,-54 -26,-7 -135,-11 -305,-12 h -265 v 265 265 l 190,3 c 226,3 274,-7 334,-69 21,-22 40,-36 44,-32 10,10 8,331 -2,337 -4,3 -17,-4 -27,-16 -30,-33 -94,-70 -149,-85 -34,-9 -102,-13 -213,-12 -145,2 -164,4 -172,20 -6,10 -10,110 -10,222 0,169 3,207 15,217 11,9 79,11 277,8 292,-4 298,-5 387,-77 l 44,-36 -7,40 c -3,22 -9,73 -12,113 -4,40 -10,75 -15,77 -8,6 -1103,12 -1119,7 z"/>
	<path d="m 232,2245.5608 c 14,-16 34,-46 44,-68 18,-38 19,-74 19,-600 v -560 l -28,-43 c -15,-24 -34,-45 -42,-49 -8,-3 -12,-9 -9,-14 6,-10 514,-13 514,-3 0,4 -13,22 -30,41 -16,18 -30,42 -30,53 0,10 -4,22 -10,25 -15,9 -13,508 2,523 8,8 64,12 186,12 205,0 254,-11 326,-70 27,-22 51,-39 53,-37 8,9 4,332 -4,332 -9,0 -56,-33 -86,-60 -7,-6 -33,-19 -58,-28 -39,-15 -75,-17 -235,-15 l -189,3 v 225 225 l 278,3 c 264,2 280,1 325,-19 26,-12 59,-33 74,-47 15,-14 30,-23 32,-21 3,3 2,52 -2,109 l -7,105 -574,3 -575,2 z"/>
	<path d="m 3943,2231.5608 c 63,-73 67,-114 67,-661 0,-527 -2,-543 -61,-620 -16,-20 -29,-39 -29,-42 0,-8 505,-7 513,0 3,4 -9,24 -28,46 -62,73 -67,120 -62,645 2,252 9,483 15,514 11,63 32,103 71,136 l 26,23 h -273 -274 z"/>
	<path d="m 8050,2263.5608 c -8,-6 -36,-13 -62,-16 -26,-4 -50,-11 -54,-16 -3,-5 -13,-9 -22,-9 -15,0 -155,-65 -177,-83 -5,-4 -26,-19 -45,-33 -92,-65 -193,-192 -232,-289 -39,-96 -48,-145 -48,-255 0,-109 10,-161 47,-250 61,-148 183,-274 340,-350 155,-75 200,-85 388,-85 197,1 253,12 410,86 49,23 90,53 137,101 l 68,67 v 83 83 l -33,-40 c -82,-102 -200,-196 -263,-211 -16,-4 -34,-11 -40,-16 -37,-28 -294,-28 -351,0 -10,5 -36,17 -58,28 -118,54 -210,156 -252,279 -55,160 -61,241 -24,380 9,38 65,158 83,180 5,6 22,26 38,45 16,19 30,38 30,41 0,13 118,97 175,125 58,28 64,29 217,29 112,0 161,-4 170,-12 6,-7 19,-13 27,-13 33,0 164,-76 223,-129 51,-47 60,-52 55,-31 -8,25 -26,221 -27,275 v 30 l -40,-42 c -21,-24 -41,-43 -44,-43 -3,0 -29,11 -58,24 -55,25 -118,45 -201,65 -57,13 -356,15 -377,2 z"/>
</g>
</svg>