<?xml version="1.0" encoding="utf-8"?>
<!-- Generator: Adobe Illustrator 16.0.0, SVG Export Plug-In . SVG Version: 6.00 Build 0)  -->
<!DOCTYPE svg PUBLIC "-//W3C//DTD SVG 1.1//EN" "http://www.w3.org/Graphics/SVG/1.1/DTD/svg11.dtd">
<svg version="1.1" id="Layer_1" xmlns="http://www.w3.org/2000/svg" xmlns:xlink="http://www.w3.org/1999/xlink" x="0px" y="0px"
	 width="65.333px" height="65.333px" viewBox="0 0 65.333 65.333" enable-background="new 0 0 65.333 65.333" xml:space="preserve">
<g>
	<g>
		<path fill="#005794" d="M55.847,46.911c-0.056-1.576-0.019-3.154-0.009-4.731c0.002-0.343-0.101-0.556-0.402-0.759
			c-2.057-1.381-4.089-2.795-6.133-4.192c-2.952-2.021-5.91-4.035-8.862-6.055c-2.262-1.544-4.519-3.094-6.782-4.635l-0.013,21.005
			l-2.206-1.498v-0.018c-0.245-0.168-0.486-0.331-0.727-0.496L11.179,32.169c-0.595-0.405-1.259-0.842-1.871-1.26
			c-0.007,0.222,0.009,0.336,0.009,0.453c-0.003,5.407-0.02,10.812,0.004,16.221c0.006,1.449,0.665,2.649,1.845,3.472
			c3.061,2.134,6.155,4.217,9.236,6.323c3.424,2.336,6.852,4.668,10.27,7.017c1.052,0.722,2.721,0.755,3.763,0.042
			c1.647-1.126,3.3-2.243,4.946-3.368c4.697-3.215,9.382-6.452,14.095-9.642C55.104,50.327,55.917,48.888,55.847,46.911z"/>
		<path fill="#D92827" d="M32.598,21.562c0-0.006,0-0.01,0-0.016c7.788,5.323,15.477,10.577,23.172,15.839
			c0.023-0.069,0.05-0.115,0.05-0.164c0.003-2.773,0.009-5.545-0.003-8.319l-0.003-2.747c0.011-4.645-0.022-9.288,0.009-13.933
			c0.01-1.301-1.015-2.258-2.283-2.258C39.573,9.983,25.605,9.981,11.637,9.957c-1.349-0.003-2.331,0.978-2.326,2.276
			c0.019,4.662,0,9.324,0.019,13.985c0.001,0.226,0.165,0.532,0.351,0.661c3.716,2.577,7.444,5.136,11.176,7.69
			c3.524,2.412,7.051,4.816,10.583,7.215l-0.002-21.011L32.598,21.562z"/>
	</g>
	<g>
		<g>
			<path fill="#D92827" d="M17.522,25.239"/>
			<path fill="#D92827" d="M53.681,10.151C40.403,9.682,33.456,1.105,33.386,1.02L32.581,0l-0.807,1.019
				c-0.069,0.086-7.019,8.663-20.295,9.132"/>
		</g>
	</g>
	<g>
		<path fill="#FFFFFF" d="M28.451,12.437c-0.208-0.285-0.35-0.601-0.443-0.942c-0.101-0.37-0.127-0.748-0.071-1.123
			c0.115-0.776,0.479-1.415,1.103-1.898c0.09-0.07,0.184-0.133,0.288-0.208c-0.028,0.155-0.06,0.29-0.075,0.425
			c-0.036,0.324-0.043,0.649,0.026,0.97c0.014,0.065,0.027,0.133,0.036,0.2c0.003,0.022-0.006,0.048-0.017,0.069
			c-0.141,0.262-0.212,0.543-0.209,0.84c0.006,0.488,0.186,0.904,0.536,1.246c0.555,0.543,1.109,1.087,1.662,1.631
			c0.264,0.26,0.576,0.429,0.937,0.5c0.808,0.159,1.636-0.23,1.996-0.997c0.167-0.354,0.2-0.726,0.116-1.113
			c-0.084-0.404-0.313-0.712-0.604-0.991c-0.547-0.525-1.085-1.062-1.631-1.589c-0.207-0.199-0.455-0.329-0.733-0.396
			c-0.069-0.018-0.136-0.036-0.207-0.053c0.027-0.351,0.159-0.655,0.417-0.897c0.21-0.198,0.15-0.152,0.399-0.066
			c0.521,0.18,0.917,0.533,1.299,0.917c0.462,0.467,0.937,0.921,1.407,1.381c0.314,0.309,0.546,0.67,0.701,1.084
			c0.16,0.426,0.21,0.87,0.156,1.315c-0.095,0.796-0.465,1.451-1.095,1.952c-0.317,0.255-0.679,0.427-1.069,0.536
			c-0.354,0.099-0.72,0.129-1.085,0.091c-0.743-0.078-1.377-0.387-1.905-0.921c-0.538-0.54-1.089-1.069-1.633-1.604
			c-0.048-0.048-0.093-0.099-0.147-0.156"/>
		<path fill="#FFFFFF" d="M35.92,10.017C35.82,9.79,35.792,9.793,35.708,9.7c-0.182-0.202-0.373-0.395-0.565-0.585
			c-0.438-0.432-0.876-0.862-1.32-1.289c-0.241-0.232-0.532-0.378-0.864-0.446c-0.226-0.048-0.451-0.056-0.675-0.018
			c-0.463,0.081-0.847,0.303-1.137,0.678c-0.31,0.4-0.42,0.854-0.342,1.349c0.061,0.382,0.239,0.706,0.517,0.976
			c0.568,0.556,1.135,1.114,1.706,1.667c0.24,0.232,0.524,0.384,0.854,0.449c0.039,0.007,0.078,0.021,0.125,0.035
			c-0.018,0.097-0.025,0.194-0.053,0.286c-0.08,0.267-0.227,0.488-0.436,0.674c-0.08,0.071-0.146,0.077-0.232,0.038
			c-0.215-0.097-0.444-0.172-0.638-0.3c-0.221-0.146-0.42-0.331-0.613-0.516c-0.529-0.508-1.05-1.026-1.572-1.54
			c-0.346-0.339-0.586-0.743-0.731-1.206c-0.118-0.371-0.156-0.751-0.114-1.134C29.696,8.095,30,7.477,30.539,6.98
			c0.319-0.296,0.687-0.509,1.102-0.644c0.416-0.137,0.841-0.175,1.274-0.129c0.694,0.075,1.291,0.354,1.789,0.843
			c0.58,0.567,1.162,1.133,1.739,1.702c0.167,0.165,0.319,0.371,0.427,0.56c0.107,0.19,0.223,0.482,0.223,0.482
			c0.135,0.409,0.191,0.827,0.145,1.258c-0.105,0.948-0.578,1.667-1.375,2.182c-0.006,0.003-0.015,0.001-0.008,0.001
			c0.025-0.205,0.05-0.408,0.077-0.611c0.034-0.256,0.004-0.509-0.041-0.759c-0.027-0.145-0.033-0.272,0.034-0.411
			c0.134-0.274,0.183-0.567,0.138-0.874C36.06,10.583,36.02,10.244,35.92,10.017z"/>
	</g>
</g>
</svg>
