<svg xmlns="http://www.w3.org/2000/svg" viewBox="0 0 120 140" width="120" height="140">
  <defs>
    <clipPath id="shield">
      <path d="M60 8 L108 28 L108 82 Q108 120 60 132 Q12 120 12 82 L12 28 Z"/>
    </clipPath>
  </defs>
  <g clip-path="url(#shield)">
    <!-- Red upper section -->
    <path d="M12 28 L60 8 L108 28 L108 48 L12 48 Z" fill="#C41E3A"/>
    <!-- White zigzag / S-shape band -->
    <path d="M12 48 L35 38 L58 48 L82 38 L108 48 L108 62 L82 72 L58 62 L35 72 L12 62 Z" fill="#fff"/>
    <!-- Blue lower section -->
    <path d="M12 62 L12 82 Q12 120 60 132 Q108 120 108 82 L108 62 Z" fill="#003366"/>
  </g>
  <!-- Small white circle with dot at top (logo icon) -->
  <circle cx="60" cy="22" r="8" fill="#fff" stroke="#C41E3A" stroke-width="1"/>
  <circle cx="60" cy="22" r="2.5" fill="#003366"/>
</svg>
